<?xml version="1.0" encoding="UTF-8" standalone="no"?>
<!-- Created with Inkscape (http://www.inkscape.org/) -->

<svg
   width="764.80182"
   height="932.6828"
   viewBox="0 0 202.35382 246.77232"
   version="1.1"
   id="svg1"
   xmlns:inkscape="http://www.inkscape.org/namespaces/inkscape"
   xmlns:sodipodi="http://sodipodi.sourceforge.net/DTD/sodipodi-0.dtd"
   xmlns="http://www.w3.org/2000/svg"
   xmlns:svg="http://www.w3.org/2000/svg">
  <sodipodi:namedview
     id="namedview1"
     pagecolor="#ffffff"
     bordercolor="#000000"
     borderopacity="0.25"
     inkscape:showpageshadow="2"
     inkscape:pageopacity="0.0"
     inkscape:pagecheckerboard="false"
     inkscape:deskcolor="#d1d1d1"
     inkscape:document-units="mm">
    <inkscape:page
       x="0"
       y="0"
       width="202.35382"
       height="246.77232"
       id="page2"
       margin="0"
       bleed="0" />
  </sodipodi:namedview>
  <defs
     id="defs1" />
  <g
     inkscape:groupmode="layer"
     id="layer3"
     inkscape:label="Layer 3"
     transform="translate(-3.2259754,-1.6011728)">
    <g
       id="g11"
       transform="matrix(2.4653501,0,0,2.4653501,-147.03432,-113.99582)">
      <path
         id="path3"
         style="fill:#530c38;fill-opacity:1;stroke-width:0.264583"
         d="m 111.2342,77.861728 c 0,-1.073224 -0.13132,-1.699906 -0.4158,-1.984375 -1.01695,-1.016961 -1.70087,-0.258554 -1.70087,1.8861 v 1.666875 h 1.05833 1.05834 z m 25.6105,-0.189717 c -0.0921,-2.068597 -0.58963,-2.667688 -1.51794,-1.827572 -0.41625,0.376689 -0.54467,0.815935 -0.54467,1.863007 0,0.753558 0.0794,1.449481 0.17639,1.546493 0.097,0.09701 0.5787,0.176389 1.07043,0.176389 h 0.89403 z m -16.6682,-4.681643 c 0.0854,-1.961857 -0.25304,-2.805407 -0.90762,-2.262156 -0.24673,0.20475 -0.36177,0.92693 -0.36177,2.270625 0,1.892019 0.0238,1.967016 0.59531,1.885831 0.54184,-0.07696 0.60238,-0.247036 0.67408,-1.8943 z m 6.97566,-0.106567 c -0.0895,-2.053502 -0.38518,-2.669272 -1.02629,-2.13719 -0.35573,0.295233 -0.49347,3.67914 -0.16322,4.009411 0.097,0.09701 0.42444,0.176668 0.7276,0.177006 0.51888,5.29e-4 0.54597,-0.119702 0.46191,-2.049227 z m -3.00707,0.004 c 0.0971,-2.03471 -0.24421,-2.780435 -1.22089,-2.667601 -0.69935,0.08079 -0.71093,0.114451 -0.78692,2.281441 l -0.0771,2.199436 1.00317,-0.08277 1.00317,-0.08277 z m -9.20673,14.350863 v -5.427086 h -5.42396 c -4.36713,0 -5.42395,-0.06934 -5.42395,-0.355867 0,-0.50369 0.86786,-1.226558 1.75749,-1.463844 l 0.75605,-0.201655 0.0757,-2.721001 c 0.0475,-1.706121 -0.0333,-2.852275 -0.2164,-3.072961 -0.2304,-0.27763 -0.0788,-0.411205 0.71805,-0.632468 1.26405,-0.351007 4.4132,-0.364093 5.64037,-0.02344 l 0.92604,0.257066 -0.093,2.557751 -0.093,2.557748 1.01902,-0.608213 c 0.56046,-0.334518 1.40599,-0.837655 1.87894,-1.118082 l 0.85989,-0.509857 v -3.682587 c 0,-3.173299 -0.0576,-3.682587 -0.41629,-3.682587 -0.80037,0 -0.24495,-0.873475 0.81317,-1.278859 1.65224,-0.633007 8.84047,-0.602953 10.51718,0.04397 1.18862,0.458616 1.6318,1.065782 0.94499,1.294715 -0.34301,0.114335 -0.66506,5.789245 -0.3906,6.882755 0.0873,0.347921 0.54117,0.817416 1.02486,1.060177 0.47747,0.239644 1.26725,0.699569 1.75503,1.022062 l 0.88691,0.586345 -0.0932,-2.558161 -0.0932,-2.558163 0.89919,-0.296529 c 1.13348,-0.373801 6.01422,-0.168865 6.45409,0.271002 0.24392,0.243903 0.2387,0.362516 -0.023,0.52428 -0.24776,0.153125 -0.31795,0.942186 -0.26236,2.949262 l 0.0759,2.740205 0.81526,0.21072 c 1.69347,0.4377 1.83057,0.857427 1.83057,5.603724 v 4.272285 l -2.44739,0.07608 -2.4474,0.07607 v -1.943733 c 0,-2.40751 -0.37711,-3.086957 -1.49561,-2.694641 -0.74147,0.260065 -0.75454,0.300681 -0.82978,2.573666 -0.0722,2.181545 -0.10885,2.309738 -0.66146,2.314929 -0.32176,0.003 -2.2519,0.178094 -4.28916,0.389044 -2.03729,0.210952 -3.839,0.387072 -4.00378,0.391379 -0.20389,0.0053 -0.30187,-0.869002 -0.30668,-2.736913 -0.008,-3.249187 -0.36468,-4.198149 -1.74768,-4.654582 -1.12916,-0.372655 -2.50865,0.120986 -3.00289,1.07456 -0.1959,0.377992 -0.35698,1.924246 -0.39687,3.80959 l -0.0671,3.173368 -1.71979,0.308197 c -0.94589,0.169511 -2.16628,0.380013 -2.71198,0.467783 l -0.99219,0.159584 z m -8.97355,-15.014646 c -0.15777,-0.252683 -0.28686,-1.004361 -0.28686,-1.670394 0,-1.147032 0.10633,-1.322623 2.01445,-3.325731 1.78621,-1.87511 1.99708,-2.201865 1.86077,-2.883405 -0.0846,-0.422751 -0.0386,-0.839816 0.10218,-0.926806 0.14076,-0.08699 0.25593,-0.500047 0.25593,-0.917901 0,-0.576783 -0.14338,-0.787931 -0.59531,-0.876837 l -0.59532,-0.117104 0.58045,-0.192852 c 0.31924,-0.106067 0.63153,-0.448604 0.694,-0.761193 l 0.11358,-0.568341 0.19672,0.595312 c 0.10822,0.327422 0.36145,0.595313 0.56277,0.595313 0.2013,0 0.36603,0.119062 0.36603,0.264583 0,0.145521 -0.18429,0.264583 -0.4095,0.264583 -0.34192,0 -0.38817,0.29472 -0.2803,1.785938 0.0711,0.982265 0.13626,1.829477 0.14491,1.882693 0.009,0.05322 0.83905,0.886653 1.84537,1.852083 2.06708,1.983132 2.52343,3.13086 1.8284,4.598456 l -0.38013,0.802621 -3.86564,0.02921 c -3.40302,0.02572 -3.89998,-0.02577 -4.1525,-0.430221 z m 25.7366,-0.30222 c -0.71173,-1.492526 -0.31896,-2.688037 1.44584,-4.400662 2.1586,-2.094793 2.22472,-2.210474 2.34487,-4.102393 0.0901,-1.418918 0.0382,-1.715498 -0.30054,-1.715498 -0.22521,0 -0.40949,-0.119062 -0.40949,-0.264583 0,-0.145521 0.1647,-0.264583 0.36602,-0.264583 0.2013,0 0.45455,-0.267891 0.56274,-0.595313 l 0.19675,-0.595312 0.1171,0.595312 c 0.073,0.371332 0.30927,0.595313 0.62788,0.595313 0.28091,0 0.51076,0.119062 0.51076,0.264583 0,0.145521 -0.25432,0.264583 -0.56513,0.264583 -0.52009,0 -0.55173,0.09784 -0.39687,1.227553 0.0925,0.675156 0.16825,1.4566 0.16825,1.736545 0,0.279945 0.89296,1.446414 1.98437,2.592152 1.79427,1.88359 1.98438,2.184964 1.98438,3.145798 0,0.584449 -0.13764,1.36475 -0.30589,1.734 -0.2917,0.64018 -0.37465,0.662461 -1.78594,0.479708 -1.86602,-0.241641 -2.68774,-0.240707 -4.59192,0.0052 l -1.52434,0.196869 z m -15.13919,-5.415701 c -1.88987,-2.695321 -1.11612,-5.593707 2.19715,-8.230148 2.73817,-2.178831 4.08315,-4.147075 3.48663,-5.102273 -0.21559,-0.345234 -0.20598,-0.602703 0.037,-0.991846 0.18052,-0.289068 0.32824,-1.122506 0.32824,-1.852084 0,-1.238546 -0.0439,-1.326502 -0.66146,-1.326502 -0.41159,0 -0.66146,-0.149931 -0.66146,-0.396875 0,-0.246943 0.24987,-0.396875 0.66146,-0.396875 0.52917,0 0.66146,-0.132291 0.66146,-0.661458 0,-0.918025 0.73573,-0.860248 0.8423,0.06615 0.0658,0.571492 0.23984,0.745567 0.81134,0.811324 0.98216,0.113011 0.92896,0.577738 -0.0661,0.577738 -0.7847,0 -0.79375,0.01643 -0.79375,1.439593 0,0.791776 0.12475,1.516708 0.27726,1.610961 0.16679,0.103081 0.2114,0.610669 0.11197,1.273844 -0.14669,0.978109 -0.0626,1.236625 0.74551,2.291644 0.50097,0.654043 1.63378,1.767348 2.51736,2.474013 3.39055,2.711681 4.27923,5.416889 2.64707,8.05778 -0.51128,0.827259 -0.63389,0.886561 -1.5096,0.730091 -0.52422,-0.09367 -1.66749,-0.296582 -2.54061,-0.450927 -1.88257,-0.332784 -5.57895,-0.131836 -7.34256,0.399164 -1.24606,0.375182 -1.26143,0.372338 -1.74921,-0.323305 z" />
      <path
         style="fill:#530c38;fill-opacity:1;stroke-width:0.264583"
         d="m 62.153331,146.94377 c 0.04821,-0.0482 2.925587,-0.72008 6.394158,-1.49311 20.712642,-4.61618 36.497951,-10.24784 43.745041,-15.60674 1.68709,-1.24755 3.68088,-3.36718 4.2255,-4.49225 0.96901,-2.0017 0.48808,-4.38997 -1.23005,-6.10808 -1.09841,-1.09843 -3.85603,-2.90244 -7.84685,-5.13336 -7.32226,-4.09326 -9.171513,-5.96479 -9.171513,-9.28194 0,-4.996965 6.678873,-8.428891 21.166663,-10.876422 5.23848,-0.884978 14.70681,-1.839571 17.70994,-1.785509 1.10082,0.01982 1.70383,0.0869 1.34003,0.149067 -2.74891,0.469746 -9.27976,1.892839 -12.58228,2.74172 -11.12375,2.859228 -15.88683,5.673524 -15.07522,8.907264 0.45537,1.81433 3.10049,3.42461 9.66586,5.88432 10.70795,4.01174 13.81522,5.45113 17.25592,7.9935 5.42194,4.00634 6.73645,9.6623 3.61698,15.5631 -2.04504,3.86842 -8.07733,9.32016 -14.00413,12.65634 l -1.46558,0.82498 -31.916074,0.0724 c -17.553834,0.0398 -31.876613,0.0329 -31.828395,-0.0152 z"
         id="path1" />
      <path
         style="fill:#2c3e50;fill-opacity:1;stroke-width:0.264583"
         d="m 83.188367,130.36791 v -9.0858 l -4.299479,-2.4712 -4.29948,-2.4712 -0.07287,-4.33036 c -0.06564,-3.90309 -0.03051,-4.31411 0.356315,-4.16568 0.236008,0.0906 2.157703,1.17603 4.270401,2.41213 2.112724,1.2361 3.887152,2.24745 3.943191,2.24745 0.05604,0 0.101918,-4.70166 0.101918,-10.44814 V 91.606967 L 72.142009,91.537917 61.095647,91.468867 61.022257,87.701462 60.948867,83.93406 72.002473,83.865 83.056077,83.79595 v -3.836455 -3.836458 l -4.299479,-0.0727 -4.299479,-0.0727 v -3.829905 -3.829904 h 4.365625 4.365625 v -3.96875 -3.96875 h 3.836458 3.836458 v 3.962196 3.962196 l 4.299479,0.0727 4.29948,0.0727 0.0734,3.770313 0.07342,3.770312 h -4.372901 -4.372875 v 3.96875 3.96875 h 11.119752 11.11976 l -0.0734,3.761052 -0.0734,3.761052 -0.66146,0.02656 c -0.3638,0.01461 -5.33466,0.04854 -11.04635,0.07541 l -10.384892,0.04884 0.0045,12.633861 0.0045,12.63385 4.361207,2.50225 4.361206,2.50224 v 4.32639 c 0,2.37952 -0.0893,4.27397 -0.198438,4.20988 -2.050758,-1.20399 -8.278018,-4.67721 -8.386101,-4.67721 -0.08078,0 -0.14687,2.55129 -0.14687,5.66953 v 5.66953 l -1.396709,0.52257 c -0.768164,0.28741 -2.494571,0.82341 -3.836431,1.19111 l -2.439776,0.66856 z"
         id="path2" />
    </g>
  </g>
</svg>
